HIERARCHY
ROOT Hips
{
 OFFSET 0.000000 0.000000 0.000000
 CHANNELS 6 Xposition Yposition Zposition Yrotation Xrotation Zrotation
 JOINT Chest
 {
  OFFSET 0.000000 10.295748 -1.143972
  CHANNELS 3 Yrotation Xrotation Zrotation
  JOINT Chest2
  {
   OFFSET 0.000000 11.463406 0.000000
   CHANNELS 3 Yrotation Xrotation Zrotation
   JOINT Chest3
   {
    OFFSET 0.000000 10.465446 0.003843
    CHANNELS 3 Yrotation Xrotation Zrotation
    JOINT Chest4
    {
     OFFSET 0.000000 10.453763 0.003847
     CHANNELS 3 Yrotation Xrotation Zrotation
     JOINT Neck
     {
      OFFSET 0.000000 14.640069 0.000000
      CHANNELS 3 Yrotation Xrotation Zrotation
      JOINT Head
      {
       OFFSET 0.000000 9.731475 -0.008265
       CHANNELS 3 Yrotation Xrotation Zrotation
       End Site
       {
        OFFSET 0.000000 18.098145 -0.001112
       }
      }
     }
     JOINT RightCollar
     {
      OFFSET -3.176695 8.204215 0.000000
      CHANNELS 3 Yrotation Xrotation Zrotation
      JOINT RightShoulder
      {
       OFFSET -14.761309 0.000000 0.000000
       CHANNELS 3 Yrotation Xrotation Zrotation
       JOINT RightElbow
       {
        OFFSET -31.560813 0.000000 0.000000
        CHANNELS 3 Yrotation Xrotation Zrotation
        JOINT RightWrist
        {
         OFFSET -25.806933 0.000000 0.000000
         CHANNELS 3 Yrotation Xrotation Zrotation
         End Site
         {
          OFFSET -19.288868 0.000000 0.000000
         }
        }
       }
      }
     }
     JOINT LeftCollar
     {
      OFFSET 3.176695 8.204215 0.000000
      CHANNELS 3 Yrotation Xrotation Zrotation
      JOINT LeftShoulder
      {
       OFFSET 14.761309 0.000000 0.000000
       CHANNELS 3 Yrotation Xrotation Zrotation
       JOINT LeftElbow
       {
        OFFSET 31.560813 0.000000 0.000000
        CHANNELS 3 Yrotation Xrotation Zrotation
        JOINT LeftWrist
        {
         OFFSET 25.806933 0.000000 0.000000
         CHANNELS 3 Yrotation Xrotation Zrotation
         End Site
         {
          OFFSET 19.288868 0.000000 0.000000
         }
        }
       }
      }
     }
    }
   }
  }
 }
 JOINT RightHip
 {
  OFFSET -8.449583 -0.008248 0.000916
  CHANNELS 3 Yrotation Xrotation Zrotation
  JOINT RightKnee
  {
   OFFSET 0.000000 -43.941227 0.000909
   CHANNELS 3 Yrotation Xrotation Zrotation
   JOINT RightAnkle
   {
    OFFSET 0.000000 -42.928516 0.001532
    CHANNELS 3 Yrotation Xrotation Zrotation
    JOINT RightToe
    {
     OFFSET 0.000000 -6.852267 15.473535
     CHANNELS 3 Yrotation Xrotation Zrotation
     End Site
     {
      OFFSET 0.000000 -1.580106 6.738334
     }
    }
   }
  }
 }
 JOINT LeftHip
 {
  OFFSET 8.449583 -0.010566 0.001174
  CHANNELS 3 Yrotation Xrotation Zrotation
  JOINT LeftKnee
  {
   OFFSET 0.000000 -43.941227 0.000909
   CHANNELS 3 Yrotation Xrotation Zrotation
   JOINT LeftAnkle
   {
    OFFSET 0.000000 -42.928516 0.001532
    CHANNELS 3 Yrotation Xrotation Zrotation
    JOINT LeftToe
    {
     OFFSET 0.000000 -6.852267 15.473535
     CHANNELS 3 Yrotation Xrotation Zrotation
     End Site
     {
      OFFSET 0.000000 -1.580106 6.738334
     }
    }
   }
  }
 }
}
MOTION
Frames: 8
Frame Time: 0.016667
-17.079765 94.959451 -27.817165 7.078601 5.194075 -0.495125 -0.251088 -0.324935 0.533497 -0.135404 -5.970996 0.238225 -0.134693 -0.150580 0.224479 -0.083777 5.723674 0.169160 -2.842500 13.171025 0.266357 -5.494976 -11.502196 1.656963 -1.316437 -1.191568 7.586787 7.789844 -9.949574 70.577722 0.894334 24.356811 0.279694 -0.411691 12.183426 -4.613715 3.068179 -1.973572 -7.968960 -2.146626 -8.854850 -75.429010 -8.034593 23.955855 1.185693 -3.738401 13.304807 -0.905350 3.220607 0.643502 -0.759890 0.408181 2.299625 -0.172558 1.056042 -6.935074 -0.292876 0.000891 -0.582477 1.228668 -3.823850 -1.852753 1.706071 -0.855798 3.446733 -0.043060 1.194517 -6.722623 0.216954 0.000162 -0.016396 -1.130550
-17.121092 94.960944 -27.771114 6.892256 5.202025 -0.450565 -0.261521 -0.324234 0.512364 -0.139097 -5.970688 0.228774 -0.138365 -0.150274 0.214654 -0.087286 5.723908 0.161753 -2.704130 13.132492 0.237977 -5.222874 -11.580765 1.549150 -1.333480 -1.201121 7.603575 7.754512 -9.906931 70.561344 0.848709 24.352040 0.275664 -0.396048 12.164642 -4.605191 3.024644 -1.980307 -7.925335 -2.142610 -8.854851 -75.415255 -7.705593 23.923388 1.320450 -3.743226 13.316382 -0.939565 3.315107 0.650988 -0.775536 0.490626 2.251840 -0.208929 1.074540 -6.854592 -0.310871 -0.002751 -0.775171 1.234395 -3.751582 -1.830192 1.629996 -0.786623 3.465929 0.057018 1.256775 -6.757049 0.163244 0.000349 -0.033043 -1.162423
-17.162419 94.962437 -27.725062 6.705915 5.210119 -0.406031 -0.271958 -0.323616 0.491230 -0.142792 -5.970417 0.219323 -0.142039 -0.150003 0.204828 -0.090797 5.724114 0.154346 -2.565730 13.093953 0.209630 -4.950532 -11.658946 1.441156 -1.350523 -1.210612 7.620403 7.719202 -9.864374 70.544748 0.803019 24.347295 0.271444 -0.380418 12.145881 -4.596563 2.981109 -1.986857 -7.881676 -2.138586 -8.854788 -75.401504 -7.376758 23.890215 1.453661 -3.748175 13.328108 -0.973740 3.409595 0.658551 -0.791204 0.573132 2.204119 -0.245313 1.093004 -6.774103 -0.328834 -0.006427 -0.967866 1.240098 -3.679383 -1.807708 1.553860 -0.717354 3.485186 0.157046 1.319076 -6.791380 0.109473 0.000545 -0.049688 -1.194298
-17.204582 94.962995 -27.680970 6.509688 5.222532 -0.373720 -0.279155 -0.323871 0.473811 -0.145211 -5.970530 0.211534 -0.144445 -0.150117 0.196793 -0.093218 5.724031 0.148289 -2.447917 13.052206 0.186436 -4.719253 -11.741750 1.351205 -1.368376 -1.220409 7.636533 7.692484 -9.830811 70.520053 0.768378 24.334365 0.268923 -0.367208 12.133926 -4.589947 2.943719 -1.995883 -7.842446 -2.115916 -8.841387 -75.392127 -6.992697 23.868947 1.610471 -3.755281 13.330008 -1.014105 3.558454 0.655318 -0.796318 0.629190 2.172963 -0.278311 1.094106 -6.710635 -0.348102 -0.009531 -1.129363 1.245178 -3.606901 -1.787068 1.490810 -0.653031 3.504288 0.249267 1.394024 -6.832202 0.064632 0.000614 -0.057205 -1.229464
-17.248349 94.962287 -27.640479 6.298847 5.244488 -0.360408 -0.281692 -0.327615 0.462245 -0.145818 -5.972192 0.206362 -0.145047 -0.151779 0.191559 -0.094072 5.722787 0.144343 -2.359836 13.005693 0.170404 -4.547293 -11.831831 1.286933 -1.388261 -1.231769 7.652253 7.679876 -9.806633 70.482754 0.749147 24.311090 0.268283 -0.358616 12.134956 -4.586558 2.916327 -2.008154 -7.808906 -2.063065 -8.809832 -75.391052 -6.527058 23.866654 1.802924 -3.769273 13.311656 -1.062210 3.817820 0.630359 -0.783752 0.633258 2.171871 -0.307417 1.053179 -6.673820 -0.369377 -0.011797 -1.246722 1.249949 -3.529772 -1.771879 1.445902 -0.604746 3.522021 0.333459 1.492153 -6.884137 0.032693 0.000418 -0.047613 -1.270709
-17.292953 94.960644 -27.601947 6.078108 5.270623 -0.359396 -0.280985 -0.332178 0.454411 -0.145149 -5.974215 0.202859 -0.144381 -0.153802 0.188125 -0.093835 5.721271 0.141753 -2.292338 12.955949 0.159611 -4.416508 -11.926880 1.240969 -1.408957 -1.243437 7.667288 7.675862 -9.791551 70.437503 0.740982 24.279619 0.269537 -0.352429 12.142767 -4.585269 2.895077 -2.022962 -7.779761 -1.991574 -8.764984 -75.394517 -6.005918 23.874827 2.019160 -3.785529 13.283768 -1.116765 4.131577 0.594613 -0.760811 0.610805 2.187294 -0.333109 0.994906 -6.654044 -0.391976 -0.013469 -1.332883 1.254103 -3.452315 -1.758511 1.414067 -0.561424 3.539660 0.409838 1.602969 -6.942530 0.009632 0.000058 -0.028896 -1.315243
-17.336927 94.958117 -27.562412 5.851752 5.289220 -0.362622 -0.278052 -0.330411 0.447598 -0.143544 -5.973424 0.199818 -0.142784 -0.153011 0.185246 -0.092859 5.721866 0.139584 -2.238602 12.904397 0.153290 -4.313633 -12.024583 1.209068 -1.427619 -1.252029 7.680036 7.672460 -9.793453 70.390271 0.741928 24.238201 0.274399 -0.344446 12.145564 -4.584664 2.874553 -2.040783 -7.755618 -1.917411 -8.708079 -75.395444 -5.452568 23.882404 2.248188 -3.792068 13.268200 -1.179624 4.385740 0.570082 -0.738314 0.611842 2.195163 -0.353496 0.975989 -6.639452 -0.415185 -0.014695 -1.395476 1.256120 -3.387195 -1.737870 1.393249 -0.494867 3.560686 0.471274 1.707523 -7.000083 -0.007546 -0.000232 -0.015874 -1.357989
-17.379824 94.954525 -27.520067 5.617594 5.293143 -0.368359 -0.272200 -0.318017 0.440887 -0.140656 -5.967907 0.196828 -0.139913 -0.147493 0.182550 -0.090914 5.726006 0.137555 -2.199398 12.850119 0.152892 -4.240799 -12.126614 1.194378 -1.442448 -1.254966 7.689338 7.665404 -9.818823 70.342064 0.753000 24.185080 0.284541 -0.332831 12.139418 -4.583868 2.852843 -2.062882 -7.737165 -1.840056 -8.637141 -75.390937 -4.870577 23.887886 2.485891 -3.783364 13.276240 -1.249313 4.526526 0.567626 -0.719896 0.659873 2.186943 -0.366465 1.027809 -6.628356 -0.439201 -0.015416 -1.431685 1.254921 -3.346789 -1.702972 1.385888 -0.382467 3.586901 0.510975 1.798011 -7.054457 -0.017687 -0.000362 -0.013919 -1.397276
